# File created by Blade
# Date/Time:  Tue Sep 23 19:18:47 2014
# Frame Rate: 120.000 fps
#------------------------------------------------------
:FULLY-SPECIFIED
:DEGREES
2102
root -4.736975 32.376515 2.497738 35.368207 -0.323241 -3.231336
Spine -38.660802 -1.065651 4.778456
Head 6.230106 24.710517 1.642937
LeftShoulder -17.297896 41.813257 18.423090
LeftArm 57.005173 -24.088329 -78.365061
LeftForeArm -4.664176 -0.000000 79.000943
LeftHand -53.930959 -0.000000 18.991631
LeftHandThumb1 -26.253704 0.000000 33.147579
RightShoulder -16.847409 -42.807503 -19.659380
RightArm 52.652358 18.973747 69.743768
RightForeArm 38.076054 0.000000 6.147117
RightHand 21.989565 -0.000000 -10.615168
RightHandThumb1 -24.326973 -0.000000 -32.862282
LeftUpLeg -31.482937 -2.876346 15.202362
LeftLeg 7.996183 -0.000000 -0.000000
LeftFoot -10.846497 -13.495003 -1.529223
LeftToeBase -2.571409 -0.000000 0.000000
RightUpLeg -29.268380 -11.630502 4.782264
RightLeg 0.382362 -0.000000 -0.000000
RightFoot -6.040619 -2.368281 16.275315
RightToeBase 10.464986 -0.000000 -0.000000
2103
root -4.793609 32.370095 2.518597 35.370189 -0.140001 -3.186692
Spine -38.656142 -1.072416 4.751611
Head 5.845466 27.174123 1.837007
LeftShoulder -17.510243 41.845538 18.288802
LeftArm 57.026975 -23.840259 -78.336661
LeftForeArm -4.745886 0.000000 78.737626
LeftHand -53.784692 -0.000000 19.307188
LeftHandThumb1 -26.253704 0.000000 33.147579
RightShoulder -16.897518 -42.790567 -19.567192
RightArm 52.604439 18.677347 69.523285
RightForeArm 38.321114 -0.000000 5.853944
RightHand 22.083105 -0.000000 -10.327639
RightHandThumb1 -24.326973 -0.000000 -32.862282
LeftUpLeg -31.487185 -2.743067 15.201037
LeftLeg 7.991301 -0.000000 -0.000000
LeftFoot -10.810949 -13.652851 -1.595707
LeftToeBase -2.555954 -0.000000 0.000000
RightUpLeg -29.189763 -11.619453 4.882999
RightLeg 0.352495 -0.000000 -0.000000
RightFoot -6.284063 -2.589051 16.092403
RightToeBase 10.525540 -0.000000 -0.000000
2104
root -4.841634 32.363595 2.535765 35.406945 0.046240 -3.138852
Spine -38.665800 -1.046805 4.717578
Head 5.453180 29.789137 2.080322
LeftShoulder -17.657691 41.801355 18.175874
LeftArm 56.955658 -23.601161 -78.138852
LeftForeArm -4.937425 0.000000 78.521449
LeftHand -53.715753 -0.000000 19.785452
LeftHandThumb1 -26.253704 0.000000 33.147579
RightShoulder -16.996772 -42.815051 -19.453879
RightArm 52.554311 18.371619 69.263827
RightForeArm 38.624179 0.000000 5.528845
RightHand 22.195613 -0.000000 -9.944350
RightHandThumb1 -24.326973 -0.000000 -32.862282
LeftUpLeg -31.529728 -2.661137 15.192303
LeftLeg 7.948975 -0.000000 -0.000000
LeftFoot -10.653063 -13.592182 -1.230184
LeftToeBase -3.469908 -0.000000 0.000000
RightUpLeg -29.168811 -11.648173 4.992473
RightLeg 0.345164 -0.000000 -0.000000
RightFoot -6.484902 -2.744198 16.018727
RightToeBase 10.538981 -0.000000 -0.000000
2105
root -4.888839 32.356023 2.552374 35.439630 0.266351 -3.068037
Spine -38.665229 -1.075319 4.689675
Head 5.085885 32.426259 2.328346
LeftShoulder -17.814232 41.710800 18.075163
LeftArm 56.901546 -23.354986 -78.073956
LeftForeArm -4.944550 -0.000000 78.274593
LeftHand -53.518766 -0.000000 19.854775
LeftHandThumb1 -26.253704 0.000000 33.147579
RightShoulder -17.100125 -42.902829 -19.329162
RightArm 52.521768 18.133304 69.086606
RightForeArm 38.827979 -0.000000 5.325909
RightHand 22.124439 -0.000000 -9.708990
RightHandThumb1 -24.326973 -0.000000 -32.862282
LeftUpLeg -31.569594 -2.637980 15.213973
LeftLeg 7.887534 -0.000000 -0.000000
LeftFoot -10.569047 -13.663832 -1.213227
LeftToeBase -3.690269 -0.000000 0.000000
RightUpLeg -29.078469 -11.695044 5.073645
RightLeg 0.226059 -0.000000 -0.000000
RightFoot -6.702822 -2.938618 15.820434
RightToeBase 10.708514 -0.000000 -0.000000
2106
root -4.935471 32.348698 2.569107 35.478250 0.508480 -3.030777
Spine -38.675504 -1.097361 4.681166
Head 4.684271 35.217848 2.495456
LeftShoulder -17.930715 41.630512 17.970512
LeftArm 56.903752 -23.138265 -77.964087
LeftForeArm -4.965848 0.000000 78.045119
LeftHand -53.516212 -0.000000 20.152245
LeftHandThumb1 -26.253704 0.000000 33.147579
RightShoulder -17.223325 -42.942336 -19.178093
RightArm 52.405027 17.812882 68.784984
RightForeArm 39.206400 -0.000000 5.109956
RightHand 22.092168 0.000000 -9.474427
RightHandThumb1 -24.326973 -0.000000 -32.862282
LeftUpLeg -31.603153 -2.618279 15.294498
LeftLeg 7.805511 -0.000000 -0.000000
LeftFoot -10.499690 -13.794079 -1.289945
LeftToeBase -3.716686 -0.000000 0.000000
RightUpLeg -28.984582 -11.829504 5.241080
RightLeg 0.062270 -0.000000 -0.000000
RightFoot -6.803819 -3.001355 15.746898
RightToeBase 10.701261 -0.000000 -0.000000
2107
root -4.975013 32.341857 2.584095 35.544015 0.734195 -2.993048
Spine -38.717135 -1.106338 4.666580
Head 4.393913 37.921758 2.696514
LeftShoulder -18.089640 41.618985 17.849789
LeftArm 56.998941 -22.881837 -77.812237
LeftForeArm -5.138109 0.000000 77.781095
LeftHand -53.373046 0.000000 20.483507
LeftHandThumb1 -26.253704 0.000000 33.147579
RightShoulder -17.292548 -43.054518 -19.036930
RightArm 52.327881 17.673530 68.676191
RightForeArm 39.403690 -0.000000 4.917951
RightHand 22.077514 -0.000000 -9.256793
RightHandThumb1 -24.326973 -0.000000 -32.862282
LeftUpLeg -31.661887 -2.568284 15.341347
LeftLeg 7.722567 -0.000000 -0.000000
LeftFoot -10.440673 -13.922589 -1.302341
LeftToeBase -3.782261 -0.000000 0.000000
RightUpLeg -28.917306 -11.950352 5.390450
RightLeg -0.109475 -0.000000 0.000000
RightFoot -6.851960 -3.026538 15.799748
RightToeBase 10.611123 -0.000000 -0.000000
2108
root -5.010867 32.334976 2.599398 35.598352 0.980195 -2.962241
Spine -38.753154 -1.109230 4.659798
Head 4.157484 40.520291 2.877525
LeftShoulder -18.176611 41.595657 17.763488
LeftArm 57.094459 -22.655063 -77.742753
LeftForeArm -5.157927 -0.000000 77.558964
LeftHand -53.302955 -0.000000 20.607005
LeftHandThumb1 -26.253704 0.000000 33.147579
RightShoulder -17.385311 -43.176635 -18.881856
RightArm 52.225603 17.579615 68.608648
RightForeArm 39.551883 -0.000000 4.756300
RightHand 22.068485 -0.000000 -8.972835
RightHandThumb1 -24.326973 -0.000000 -32.862282
LeftUpLeg -31.700387 -2.548125 15.412120
LeftLeg 7.603998 -0.000000 -0.000000
LeftFoot -10.380133 -14.069578 -1.326716
LeftToeBase -3.811421 -0.000000 0.000000
RightUpLeg -28.814814 -12.086271 5.535474
RightLeg -0.317662 -0.000000 0.000000
RightFoot -6.924529 -3.053625 15.809762
RightToeBase 10.713612 -0.000000 -0.000000
2109
root -5.045522 32.328078 2.613571 35.642225 1.213465 -2.959493
Spine -38.778788 -1.071650 4.651806
Head 3.955948 43.065021 3.051003
LeftShoulder -18.223566 41.592395 17.645727
LeftArm 57.264009 -22.477345 -77.667476
LeftForeArm -5.272577 0.000000 77.387222
LeftHand -53.321914 -0.000000 20.932660
LeftHandThumb1 -26.253704 0.000000 33.147579
RightShoulder -17.490673 -43.372945 -18.701411
RightArm 52.120208 17.487536 68.529980
RightForeArm 39.861534 -0.000000 4.634159
RightHand 22.095425 -0.000000 -8.763167
RightHandThumb1 -24.326973 -0.000000 -32.862282
LeftUpLeg -31.715085 -2.500783 15.500983
LeftLeg 7.481404 -0.000000 -0.000000
LeftFoot -10.159896 -14.202592 -1.587985
LeftToeBase -4.238784 -0.000000 0.000000
RightUpLeg -28.700789 -12.178973 5.680092
RightLeg -0.534646 -0.000000 0.000000
RightFoot -6.966321 -3.100938 15.783808
RightToeBase 10.773987 -0.000000 -0.000000
2110
root -5.074951 32.322106 2.624321 35.745979 1.471244 -2.967795
Spine -38.858949 -1.051284 4.681442
Head 3.791246 45.666119 3.239035
LeftShoulder -18.231832 41.422554 17.629754
LeftArm 57.264684 -22.239529 -77.624666
LeftForeArm -5.261490 -0.000000 77.211573
LeftHand -53.299256 -0.000000 21.068878
LeftHandThumb1 -26.253704 0.000000 33.147579
RightShoulder -17.525146 -43.497391 -18.601891
RightArm 51.927460 17.498877 68.611126
RightForeArm 39.953173 -0.000000 4.567593
RightHand 22.044553 -0.000000 -8.608843
RightHandThumb1 -24.326973 -0.000000 -32.862282
LeftUpLeg -31.805162 -2.460125 15.614230
LeftLeg 7.355149 -0.000000 -0.000000
LeftFoot -10.101416 -14.374571 -1.627975
LeftToeBase -4.230195 -0.000000 0.000000
RightUpLeg -28.663391 -12.341840 5.889593
RightLeg -0.749462 -0.000000 0.000000
RightFoot -6.960641 -3.089380 15.786707
RightToeBase 10.777589 -0.000000 -0.000000
